<svg id="e0piJynwtIl1" xmlns="http://www.w3.org/2000/svg" xmlns:xlink="http://www.w3.org/1999/xlink" viewBox="0 0 32 32" shape-rendering="geometricPrecision" text-rendering="geometricPrecision"><g><path d="M18,29c-.203908-.000483-.402796-.063289-.57-.18l-10-7c-.268862-.186517-.429462-.492776-.43-.82v-10c.000538-.327224.161138-.633483.43-.82l10-7c.296726-.200786.678195-.227489,1-.07.344057.163829.565096.508961.57.89v24c.000779.374357-.2076.717796-.54.89-.142332.072922-.300077.110643-.46.11ZM9,20.48l8,5.6v-20.16l-8,5.6Z" fill="#fff"/><path d="M8,22h-4c-1.656854,0-3-1.343146-3-3v-6c0-1.656854,1.343146-3,3-3h4c.552285,0,1,.447715,1,1v10c0,.552285-.447715,1-1,1ZM4,12c-.552285,0-1,.447715-1,1v6c0,.552285.447715,1,1,1h3v-8Z" fill="#fff"/><rect width="2" height="12" rx="0" ry="0" transform="matrix(.707107-.707107 0.707107 0.707107 20.809032 12.463104)" fill="#fff"/><rect width="12" height="2" rx="0" ry="0" transform="matrix(.707107-.707107 0.707107 0.707107 20.809032 19.534172)" fill="#fff"/></g></svg>