<svg id="e0hpOtBPx3g1" xmlns="http://www.w3.org/2000/svg" xmlns:xlink="http://www.w3.org/1999/xlink" viewBox="0 0 30 30" shape-rendering="geometricPrecision" text-rendering="geometricPrecision"><g transform="matrix(.005859 0 0-.005859 0 30)"><path d="M2345,5054c-16-2-70-9-120-15-438-53-884-241-1255-528-126-97-354-330-453-462C233,3669,76,3282,14,2810c-23-177-15-566,15-733c48-267,116-479,230-712c128-260,283-477,486-680c250-251,555-450,889-580c124-49,176-55,231-29c61,28,65,51,65,338c0,141-4,256-8,256-5,0-55-7-113-16-262-40-491,18-634,160-51,51-73,86-127,197-92,187-149,257-291,356-25,17-54,44-63,59-18,26-17,27,7,46c20,17,35,20,101,16c143-8,274-98,382-262c105-160,224-245,374-268c88-14,207-1,308,34l67,23l18,77c22,93,57,166,111,231c21,26,36,47,31,47-4,0-62,9-128,20-327,53-554,156-725,329-174,175-271,415-301,741-27,298,27,536,171,744c28,40,59,81,69,90c18,16,18,19,0,77-31,100-42,225-29,336c12,99,53,260,71,278c17,17,130,7,224-20c107-31,256-102,380-180l90-57l115,25c204,45,273,52,530,52s326-7,530-52l115-25l90,57c124,78,273,149,380,180c94,27,207,37,224,20c18-19,60-182,70-279c13-110,2-239-27-333l-18-58l53-65c29-36,75-110,103-165c92-183,123-375,101-620-41-447-202-731-517-910-128-73-334-139-519-165-140-20-132-14-90-63c20-23,52-73,70-112c60-125,65-175,65-641c0-456,1-462,59-497c62-36,156-14,381,88c538,247,969,667,1231,1200c114,233,182,445,230,712c30,167,38,556,15,733-78,592-320,1087-735,1500-220,219-410,355-686,490-238,117-472,190-752,236-93,15-516,28-588,18Z" fill="#fff"/></g></svg>