<svg cache-id="b71837b579ca4a66b84365a33549c011" id="etVpeyvdIkU1" xmlns="http://www.w3.org/2000/svg" xmlns:xlink="http://www.w3.org/1999/xlink" viewBox="0 0 24 24" shape-rendering="geometricPrecision" text-rendering="geometricPrecision"><g><path d="M19,9c-1.268255.003564-2.397252.804271-2.82,2L3,11c-.552285,0-1,.447715-1,1s.447715,1,1,1h13.18c.508911,1.439398,2.017664,2.267024,3.505041,1.92269s2.47893-1.750792,2.303514-3.267395-1.461847-2.659581-2.988555-2.655295ZM3,7h1.18C4.610625,8.186453,5.737815,8.976477,7,8.976477s2.389375-.790024,2.82-1.976477L21,7c.552285,0,1-.447715,1-1s-.447715-1-1-1L9.82,5C9.389375,3.813547,8.262185,3.023523,7,3.023523s-2.389375.790024-2.82,1.976477L3,5c-.552285,0-1,.447715-1,1s.447715,1,1,1ZM21,17h-7.18c-.430625-1.186453-1.557815-1.976477-2.82-1.976477s-2.389375.790024-2.82,1.976477L3,17c-.552285,0-1,.447715-1,1s.447715,1,1,1h5.18c.430625,1.186453,1.557815,1.976477,2.82,1.976477s2.389375-.790024,2.82-1.976477h7.18c.552285,0,1-.447715,1-1s-.447715-1-1-1Z" fill="#fff"/></g></svg>