<svg id="e6q2jdteKQC1" xmlns="http://www.w3.org/2000/svg" xmlns:xlink="http://www.w3.org/1999/xlink" viewBox="0 0 200 200" shape-rendering="geometricPrecision" text-rendering="geometricPrecision"><path d="M100,175.69c-1.247416-.000999-2.449407-.468242-3.37-1.31L48.06,130h-18.75c-2.761424,0-5-2.238576-5-5v-50c0-2.761424,2.238576-5,5-5h18.75L96.63,25.62c1.462726-1.334556,3.575194-1.680217,5.386991-.881468s2.981561,2.591416,2.983009,4.571468v141.38c0,2.761424-2.238576,5-5,5ZM34.31,120h15.69c1.247416.000999,2.449407.468242,3.37,1.31l41.63,38v-118.66l-41.63,38c-.914526.856319-2.117204,1.338104-3.37,1.35h-15.69Z" fill="#fff" stroke="#fff"/><path d="M119.4,122.53c-2.020695-.000428-3.842495-1.217104-4.617044-3.08346s-.349567-4.01546,1.077044-5.44654c7.720404-7.736781,7.720404-20.263219,0-28-1.894861-1.961894-1.867762-5.080424.060907-7.009093s5.047199-1.955768,7.009093-.060907c11.618713,11.64406,11.618713,30.49594,0,42.14-.937055.93469-2.206475,1.459719-3.53,1.46Z" fill="#fff"/><path d="M137.08,140.21c-2.025089.003623-3.852385-1.214629-4.627843-3.085367s-.345925-4.024491,1.087843-5.454633c8.401402-8.398347,13.121518-19.790783,13.121518-31.67s-4.720116-23.271653-13.121518-31.67c-1.299783-1.255372-1.821063-3.114389-1.363486-4.862537s1.822802-3.113372,3.570949-3.570949s3.607165.063703,4.862537,1.363486c10.276112,10.273624,16.049382,24.209142,16.049382,38.74s-5.77327,28.466376-16.049382,38.74c-.93542.938357-2.205041,1.467066-3.53,1.47Z" fill="#fff"/><path d="M152,155.13c-2.020695-.000428-3.842495-1.217104-4.617044-3.08346s-.349567-4.01546,1.077044-5.44654c25.732246-25.738218,25.732246-67.461782,0-93.2-1.299783-1.255372-1.821063-3.114389-1.363486-4.862537s1.822802-3.113372,3.570949-3.570949s3.607165.063703,4.862537,1.363486c14.234375,14.23406,22.231191,33.539777,22.231191,53.67s-7.996816,39.43594-22.231191,53.67c-.937055.93469-2.206475,1.459719-3.53,1.46Z" fill="#fff"/></svg>