<?xml version="1.0" standalone="no"?>
<!DOCTYPE svg PUBLIC "-//W3C//DTD SVG 20010904//EN"
 "http://www.w3.org/TR/2001/REC-SVG-20010904/DTD/svg10.dtd">
<svg version="1.0" xmlns="http://www.w3.org/2000/svg"
 width="30.000000pt" height="30.000000pt" viewBox="0 0 30.000000 30.000000"
 preserveAspectRatio="xMidYMid meet">
<metadata>
Created by potrace 1.16, written by Peter Selinger 2001-2019
</metadata>
<g transform="translate(0.000000,30.000000) scale(0.005859,-0.005859)"
fill="#000000" stroke="none">
<path d="M2345 5054 c-16 -2 -70 -9 -120 -15 -438 -53 -884 -241 -1255 -528
-126 -97 -354 -330 -453 -462 -284 -380 -441 -767 -503 -1239 -23 -177 -15
-566 15 -733 48 -267 116 -479 230 -712 128 -260 283 -477 486 -680 250 -251
555 -450 889 -580 124 -49 176 -55 231 -29 61 28 65 51 65 338 0 141 -4 256
-8 256 -5 0 -55 -7 -113 -16 -262 -40 -491 18 -634 160 -51 51 -73 86 -127
197 -92 187 -149 257 -291 356 -25 17 -54 44 -63 59 -18 26 -17 27 7 46 20 17
35 20 101 16 143 -8 274 -98 382 -262 105 -160 224 -245 374 -268 88 -14 207
-1 308 34 l67 23 18 77 c22 93 57 166 111 231 21 26 36 47 31 47 -4 0 -62 9
-128 20 -327 53 -554 156 -725 329 -174 175 -271 415 -301 741 -27 298 27 536
171 744 28 40 59 81 69 90 18 16 18 19 0 77 -31 100 -42 225 -29 336 12 99 53
260 71 278 17 17 130 7 224 -20 107 -31 256 -102 380 -180 l90 -57 115 25
c204 45 273 52 530 52 257 0 326 -7 530 -52 l115 -25 90 57 c124 78 273 149
380 180 94 27 207 37 224 20 18 -19 60 -182 70 -279 13 -110 2 -239 -27 -333
l-18 -58 53 -65 c29 -36 75 -110 103 -165 92 -183 123 -375 101 -620 -41 -447
-202 -731 -517 -910 -128 -73 -334 -139 -519 -165 -140 -20 -132 -14 -90 -63
20 -23 52 -73 70 -112 60 -125 65 -175 65 -641 0 -456 1 -462 59 -497 62 -36
156 -14 381 88 538 247 969 667 1231 1200 114 233 182 445 230 712 30 167 38
556 15 733 -78 592 -320 1087 -735 1500 -220 219 -410 355 -686 490 -238 117
-472 190 -752 236 -93 15 -516 28 -588 18z"/>
</g>
</svg>
